<?xml version="1.0" standalone="no"?>
<!DOCTYPE svg PUBLIC "-//W3C//DTD SVG 1.1//EN" "http://www.w3.org/Graphics/SVG/1.1/DTD/svg11.dtd" >
<svg xmlns="http://www.w3.org/2000/svg">
<metadata></metadata>
<defs>
<font id="forzamedium" horiz-adv-x="1024" >
<font-face units-per-em="2048" ascent="1638" descent="-410" />
<missing-glyph horiz-adv-x="460" />
<glyph unicode="&#xfb01;" horiz-adv-x="1280" d="M66 920v186h182v57q0 103 14 160t45 88q33 33 74 48.5t113 15.5h196v-183h-149q-48 0 -64 -16t-16 -111v-59h248v-186h-246v-920h-215v920h-182zM897 1266v229h242v-229h-242zM911 0v1106h213v-1106h-213z" />
<glyph unicode="&#xfb02;" horiz-adv-x="1280" d="M66 920v186h182v57q0 103 14 160t45 88q33 33 74 48.5t113 15.5h196v-183h-149q-48 0 -64 -16t-16 -111v-59h248v-186h-246v-920h-215v920h-182zM911 0v1475h213v-1475h-213z" />
<glyph unicode="&#xfb03;" horiz-adv-x="2035" d="M66 920v186h182v57q0 103 14 160t45 88q33 33 74 48.5t113 15.5h196v-183h-149q-48 0 -64 -16t-16 -111v-59h248v-186h-246v-920h-215v920h-182zM821 920v186h183v57q0 103 14 160t45 88q33 33 73.5 48.5t112.5 15.5h197v-183h-150q-47 0 -63 -16t-16 -111v-59h247v-186 h-245v-920h-215v920h-183zM1653 1266v229h241v-229h-241zM1667 0v1106h213v-1106h-213z" />
<glyph unicode="&#xfb04;" horiz-adv-x="2035" d="M66 920v186h182v57q0 103 14 160t45 88q33 33 74 48.5t113 15.5h196v-183h-149q-48 0 -64 -16t-16 -111v-59h248v-186h-246v-920h-215v920h-182zM821 920v186h183v57q0 103 14 160t45 88q33 33 73.5 48.5t112.5 15.5h197v-183h-150q-47 0 -63 -16t-16 -111v-59h247v-186 h-245v-920h-215v920h-183zM1667 0v1475h213v-1475h-213z" />
<glyph horiz-adv-x="2048" />
<glyph horiz-adv-x="2048" />
<glyph unicode="&#xd;" horiz-adv-x="2048" />
<glyph unicode=" "  horiz-adv-x="460" />
<glyph unicode="&#x09;" horiz-adv-x="460" />
<glyph unicode="&#xa0;" horiz-adv-x="460" />
<glyph unicode="!" horiz-adv-x="692" d="M205 1358v76h282v-76l-81 -907h-99zM215 0v274h262v-274h-262z" />
<glyph unicode="&#x22;" horiz-adv-x="1030" d="M164 1393v41h282v-41l-81 -519h-119zM602 1393v41h283v-41l-82 -519h-119z" />
<glyph unicode="#" horiz-adv-x="1519" d="M78 367v186h258l86 360h-211v187h256l82 334h203l-82 -334h354l82 334h203l-82 -334h215v-187h-260l-86 -360h213v-186h-258l-88 -367h-203l88 367h-354l-88 -367h-203l88 367h-213zM528 545h371l90 377h-371z" />
<glyph unicode="$" horiz-adv-x="1331" d="M133 451h223q3 -126 9.5 -172.5t19.5 -59.5q22 -22 98 -22h103v430l-158 14q-81 8 -129.5 23.5t-79.5 46.5q-41 41 -54 106t-13 211q0 142 18 217t66 123q66 66 227 66h115v163h186v-163h100q170 0 232 -62q45 -45 61.5 -117.5t22.5 -261.5h-224q-3 120 -9 164t-19 57 q-23 23 -88 23h-84v-414l172 -16q79 -8 126.5 -22.5t78.5 -45.5q41 -41 56 -109t15 -214q0 -151 -17.5 -226t-66.5 -124q-66 -66 -221 -66h-135v-184h-186v184h-129q-175 0 -238 63q-43 43 -59 120t-19 268zM373 1030q0 -78 4.5 -108.5t21.5 -47.5q12 -12 30 -16.5t63 -9.5 l94 -10v399h-99q-40 0 -57.5 -5t-30.5 -18q-26 -26 -26 -184zM756 197h110q42 0 59.5 4.5t30.5 17.5q27 27 27 195q0 79 -5 109.5t-22 47.5q-22 22 -92 29l-108 10v-413z" />
<glyph unicode="%" horiz-adv-x="1695" d="M109 1071q0 144 17 210t54 103q50 50 156 50h125q105 0 155 -50q37 -37 54.5 -103t17.5 -210t-17.5 -210t-54.5 -103q-49 -49 -155 -49h-125q-107 0 -156 49q-37 37 -54 103t-17 210zM264 -6l529 764l460 682h179l-529 -764l-461 -682h-178zM283 1071q0 -172 20 -192 q17 -17 59 -17h72q43 0 60 17q20 20 20 192q0 173 -20 193q-16 16 -60 16h-72q-43 0 -59 -16q-20 -20 -20 -193zM1008 362q0 144 17 210.5t54 103.5q49 49 156 49h125q107 0 156 -49q37 -37 54 -103.5t17 -210.5t-17 -210t-54 -103q-49 -49 -156 -49h-125q-107 0 -156 49 q-37 37 -54 103t-17 210zM1182 362q0 -172 20 -192q16 -16 60 -16h71q44 0 60 16q20 20 20 192q0 173 -20 193q-16 16 -60 16h-71q-44 0 -60 -16q-20 -20 -20 -193z" />
<glyph unicode="&#x26;" horiz-adv-x="1456" d="M125 424q0 158 11.5 216.5t53.5 100.5q53 53 189 78l24 4q-36 76 -36 219q0 149 15 218t56 110q34 34 88 49t152 15h178q139 0 193 -54q44 -44 58.5 -117t14.5 -239h-217q-2 183 -22 203q-16 16 -78 16h-98q-48 0 -67 -4.5t-30 -15.5q-12 -12 -15 -47t-3 -136 q0 -99 20 -153q17 -42 90 -123l211 -225h17l196 280h248l-311 -430l356 -389h-291l-182 203h-18l-43 -64q-52 -75 -118.5 -108t-162.5 -33h-158q-92 0 -146 15.5t-93 54.5q-45 45 -63.5 121t-18.5 235zM344 424q0 -110 7.5 -151.5t25.5 -59.5q27 -27 125 -27h59q63 0 102 16 t70 60l64 90l-291 307l-57 -14q-52 -15 -78 -41q-27 -27 -27 -180z" />
<glyph unicode="'" horiz-adv-x="591" d="M164 1393v41h282v-41l-81 -519h-119z" />
<glyph unicode="(" horiz-adv-x="827" d="M199 563q0 350 18 453q12 71 72.5 167.5t202.5 270.5h157q-173 -317 -192 -403q-25 -122 -25 -488q0 -365 25 -487q20 -88 192 -404h-157q-142 174 -202.5 271t-72.5 168q-18 99 -18 452z" />
<glyph unicode=")" horiz-adv-x="827" d="M178 -328q174 319 193 404q24 117 24 487q0 371 -24 488q-10 47 -52.5 135t-140.5 268h158q141 -173 201.5 -270t72.5 -168q19 -108 19 -453q0 -347 -19 -452q-12 -71 -72.5 -168.5t-201.5 -270.5h-158z" />
<glyph unicode="*" horiz-adv-x="1060" d="M164 1004v163l258 -41v-82zM276 809l164 203l72 -41l-94 -244zM276 1362l142 82l94 -244l-72 -41zM549 971l72 41l163 -203l-141 -82zM549 1200l94 244l141 -82l-163 -203zM639 1044v82l258 41v-163z" />
<glyph unicode="+" horiz-adv-x="1040" d="M115 647v193h309v309h192v-309h310v-193h-310v-309h-192v309h-309z" />
<glyph unicode="," horiz-adv-x="557" d="M98 -246l133 180q17 24 17 52v14h-101v274h263v-262q0 -43 -14 -74.5t-46 -64.5l-178 -180z" />
<glyph unicode="-" horiz-adv-x="839" d="M127 543v219h586v-219h-586z" />
<glyph unicode="." horiz-adv-x="557" d="M147 0v274h263v-274h-263z" />
<glyph unicode="/" horiz-adv-x="1030" d="M-84 -328l836 1782h217l-836 -1782h-217z" />
<glyph unicode="0" horiz-adv-x="1398" d="M137 717q0 207 20 344t49 200t73 103q46 42 105 56t179 14h273q120 0 179 -14t105 -56q44 -40 73 -103t49 -200t20 -344t-20 -344t-49 -200t-73 -103q-46 -42 -105 -56t-179 -14h-273q-120 0 -179 14t-105 56q-44 40 -73 103t-49 200t-20 344zM381 717q0 -434 63 -492 q17 -15 42 -21.5t81 -6.5h264q56 0 81 6.5t42 21.5q64 59 64 492q0 432 -64 491q-17 15 -42 22t-81 7h-264q-56 0 -81 -7t-42 -22q-63 -58 -63 -491z" />
<glyph unicode="1" horiz-adv-x="778" d="M37 1307l348 129h188v-1436h-229v1202l-242 -82z" />
<glyph unicode="2" horiz-adv-x="1300" d="M139 0v158q0 176 21.5 256.5t79.5 140.5q38 39 84.5 65.5t134.5 61.5l356 139q86 35 107 78q26 54 26 160t-37 143q-17 17 -45.5 23t-89.5 6h-217q-93 0 -123 -33q-30 -34 -35 -205h-235q4 158 27 239.5t71 129.5q72 72 262 72h316q177 0 245 -68q97 -97 97 -307 q0 -111 -16.5 -175t-55.5 -118q-32 -43 -85 -75t-148 -70l-361 -142q-79 -32 -108 -63q-25 -28 -35 -66t-10 -127v-20h827v-203h-1053z" />
<glyph unicode="3" horiz-adv-x="1353" d="M127 463h235q8 -209 39 -240q29 -26 119 -26h285q93 0 121 28q16 16 28.5 66.5t12.5 130.5q0 81 -12.5 132t-28.5 67q-29 26 -117 26h-305v191h291q90 0 118 28q16 16 28.5 61t12.5 111t-12.5 111t-28.5 61q-27 27 -116 27h-265q-89 0 -116 -27q-33 -33 -41 -209h-236 q0 258 105 363q70 70 250 70h366q176 0 244 -68q96 -96 96 -307q0 -135 -54 -214.5t-138 -99.5v-4q204 -35 204 -327q0 -123 -21.5 -208t-74.5 -138q-68 -68 -244 -68h-391q-182 0 -252 70q-55 55 -78.5 147t-23.5 246z" />
<glyph unicode="4" horiz-adv-x="1347" d="M92 362v74q0 89 51 170l439 711q41 67 78 92t96 25h270v-885h242v-187h-242v-362h-223v362h-711zM346 549h457v696h-35z" />
<glyph unicode="5" horiz-adv-x="1361" d="M145 430h236q5 -171 43 -205q28 -28 119 -28h268q85 0 119 30q45 41 45 234q0 186 -45 227q-33 29 -119 29h-158q-82 0 -145.5 -17t-151.5 -67l-180 61l49 740h944v-205h-733l-30 -404h18q69 60 122 74t171 14h129q102 0 164.5 -18t103.5 -59q55 -55 80 -140.5t25 -234.5 t-25 -235.5t-80 -141.5q-84 -84 -268 -84h-336q-196 0 -266 70q-53 53 -75.5 129.5t-23.5 230.5z" />
<glyph unicode="6" horiz-adv-x="1353" d="M137 717q0 293 37 436.5t107 206.5q50 45 112.5 59.5t188.5 14.5h268q175 0 240 -68q48 -50 69.5 -122.5t22.5 -213.5h-238q-8 149 -37 178t-112 29h-213q-62 0 -90 -8t-48 -25q-19 -16 -31.5 -51t-23 -141t-10.5 -277q88 69 135 90t113 21h243q104 0 165 -15.5 t100 -54.5q51 -49 69.5 -127t18.5 -219q0 -134 -24 -215t-77 -133q-82 -82 -260 -82h-299q-116 0 -177.5 16.5t-109.5 59.5q-44 40 -72.5 101.5t-47.5 197t-19 342.5zM379 602q9 -324 67 -373q17 -17 42 -24.5t85 -7.5h238q55 0 83 7t48 27q39 39 39 191q0 153 -39 192 q-20 20 -48.5 27.5t-82.5 7.5h-254q-81 0 -178 -47z" />
<glyph unicode="7" horiz-adv-x="1206" d="M102 1229v205h1008v-150l-618 -1284h-250l598 1229h-738z" />
<glyph unicode="8" horiz-adv-x="1359" d="M141 410q0 158 52 236.5t153 94.5v4q-93 14 -140.5 86.5t-47.5 221.5q0 214 96 303q75 78 244 78h364q169 0 244 -78q96 -89 96 -303q0 -149 -47.5 -221.5t-140.5 -86.5v-4q101 -16 153 -94.5t52 -236.5q0 -230 -101 -328q-82 -82 -260 -82h-356q-178 0 -260 82 q-101 98 -101 328zM385 418q0 -148 39 -187q20 -20 48 -27t83 -7h250q55 0 83 7t48 27q39 39 39 187q0 88 -8.5 132t-30.5 66q-20 20 -48.5 27.5t-82.5 7.5h-250q-54 0 -82.5 -7.5t-48.5 -27.5q-22 -22 -30.5 -66t-8.5 -132zM401 1042q0 -139 35 -174q30 -30 115 -30h258 q85 0 115 30q34 34 34 174q0 130 -34 164q-31 31 -115 31h-258q-84 0 -115 -31q-35 -35 -35 -164z" />
<glyph unicode="9" horiz-adv-x="1359" d="M137 989q0 139 24 225.5t77 137.5q82 82 260 82h299q116 0 177 -16.5t109 -59.5q44 -40 72.5 -101.5t48 -197t19.5 -342.5q0 -293 -37 -436.5t-107 -206.5q-50 -45 -112.5 -59.5t-188.5 -14.5h-301q-174 0 -239 68q-49 47 -70.5 117t-22.5 204h228q8 -135 37 -164 q28 -28 112 -28h256q63 0 90 7.5t47 24.5q19 18 30.5 44t23 125.5t12.5 267.5q-88 -68 -136 -88.5t-112 -20.5h-246q-101 0 -161 15.5t-99 54.5q-51 49 -70.5 133t-19.5 229zM379 997q0 -170 39 -209q20 -20 48 -27t83 -7h254q82 0 176 47q-7 344 -66 403q-17 17 -42.5 25 t-84.5 8h-237q-54 0 -82.5 -7.5t-48.5 -27.5q-39 -39 -39 -205z" />
<glyph unicode=":" horiz-adv-x="565" d="M152 0v274h262v-274h-262zM152 831v275h262v-275h-262z" />
<glyph unicode=";" horiz-adv-x="563" d="M102 -246l134 180q16 23 16 52v14h-100v274h262v-262q0 -43 -14 -74.5t-46 -64.5l-178 -180zM152 831v275h268v-275h-268z" />
<glyph unicode="&#x3c;" horiz-adv-x="1040" d="M121 647v193l770 387v-215l-561 -267l561 -266v-219z" />
<glyph unicode="=" horiz-adv-x="1040" d="M135 428v209h770v-209h-770zM135 850v209h770v-209h-770z" />
<glyph unicode="&#x3e;" horiz-adv-x="1040" d="M150 260v215l559 266l-559 267v219l770 -387v-193z" />
<glyph unicode="?" horiz-adv-x="1118" d="M80 979q2 184 17.5 266t58.5 125q64 64 229 64h324q91 0 144.5 -16.5t88.5 -51.5q42 -42 58 -107t16 -194q0 -137 -15 -196t-65 -109q-39 -39 -213 -117q-80 -36 -109 -65q-27 -27 -34 -127h-170v59q0 99 10.5 144t38.5 73q43 43 184 104q86 37 115 66q17 17 23.5 50 t6.5 110q0 133 -24 157q-19 19 -90 19h-250q-44 0 -62 -4.5t-30 -16.5q-22 -22 -27 -233h-225zM367 0v272h256v-272h-256z" />
<glyph unicode="@" horiz-adv-x="1933" d="M199 563q0 188 11 325.5t31.5 221.5t44 132t54.5 79q58 58 133 85.5t225 27.5h559q146 0 219.5 -25.5t129.5 -81.5q129 -129 129 -668q0 -218 -22 -322.5t-66 -148.5q-61 -61 -162 -61h-80q-70 0 -125.5 25.5t-118.5 87.5q-78 -70 -118 -91.5t-93 -21.5h-80 q-76 0 -120.5 13t-75.5 44q-41 41 -63.5 126.5t-22.5 260.5t22.5 260.5t63.5 126.5q31 31 75.5 44.5t120.5 13.5h80q53 0 93 -21.5t118 -91.5l39 113h129l-12 -225v-488q0 -48 26 -74t121 -26q55 0 82 7.5t47 27.5q36 36 51 124.5t15 296.5q0 278 -31 423t-88 202 q-44 44 -105 62t-186 18h-544q-135 0 -196.5 -20t-113.5 -72q-59 -59 -90 -215.5t-31 -493.5q0 -338 31.5 -494t91.5 -216q50 -50 114 -70.5t194 -20.5h845v-69h-852q-151 0 -225.5 27t-132.5 85q-31 31 -54.5 79t-44 132t-31.5 221.5t-11 325.5zM766 571q0 -233 33 -266 q22 -22 86 -22h106q74 0 152 41v491q-80 45 -144 45h-114q-64 0 -86 -22q-33 -33 -33 -267z" />
<glyph unicode="A" horiz-adv-x="1347" d="M39 0l455 1384q11 35 25.5 45.5t55.5 10.5h199q39 0 54.5 -10.5t27.5 -45.5l455 -1384h-248l-125 403h-547l-125 -403h-227zM451 596h426l-197 643h-31z" />
<glyph unicode="B" horiz-adv-x="1361" d="M168 0v1434h747q160 0 226 -60q48 -43 68 -114t20 -222q0 -142 -49.5 -203.5t-161.5 -89.5v-4q125 -21 175 -90t50 -231q0 -114 -12 -186t-30.5 -106t-51.5 -65q-66 -63 -229 -63h-752zM397 197h484q50 0 70 3t30 13q33 33 33 205q0 176 -37 213q-16 16 -96 16h-484v-450 zM397 840h471q80 0 99 16q17 15 24.5 53t7.5 131t-7 129.5t-23 51.5q-16 16 -101 16h-471v-397z" />
<glyph unicode="C" horiz-adv-x="1359" d="M137 717q0 232 17 370t42 193t70 96q36 33 85 45.5t149 12.5h397q99 0 148 -12.5t85 -45.5q63 -56 90.5 -145t30.5 -268h-229q-7 216 -47 251q-26 23 -103 23h-348q-76 0 -102 -23q-14 -12 -24 -44t-18.5 -146t-8.5 -307t8.5 -307.5t18.5 -146.5t24 -44t33.5 -17t68.5 -5 h348h14q36 1 54 5q20 6 35 17q20 17 31.5 73t15.5 202h231q-5 -141 -19.5 -225t-37.5 -129t-66 -83q-36 -33 -84.5 -45t-148.5 -12h-397q-100 0 -149 12t-85 45q-34 30 -54.5 67t-39 108t-27 189.5t-8.5 295.5z" />
<glyph unicode="D" horiz-adv-x="1396" d="M168 0v1434h623q129 0 208 -23t140 -78q72 -66 105.5 -211t33.5 -405t-33.5 -405.5t-105.5 -211.5q-60 -54 -139 -77t-209 -23h-623zM397 197h394q71 0 108 8.5t66 36.5q43 40 61 139.5t18 333.5q0 238 -18 337.5t-61 139.5q-32 29 -67 37t-107 8h-394v-1040z" />
<glyph unicode="E" horiz-adv-x="1247" d="M168 0v1434h979v-197h-750v-395h621v-197h-621v-448h750v-197h-979z" />
<glyph unicode="F" horiz-adv-x="1161" d="M168 0v1434h924v-197h-695v-430h553v-197h-553v-610h-229z" />
<glyph unicode="G" horiz-adv-x="1388" d="M137 717q0 232 17 370t42 193t70 96q36 33 85 45.5t149 12.5h403q100 0 149 -12.5t85 -45.5q63 -56 86 -132.5t26 -260.5h-223q-3 117 -14 165.5t-31 65.5q-26 23 -102 23h-355q-76 0 -102 -23q-14 -12 -24 -44t-18.5 -146t-8.5 -307t8.5 -307.5t18.5 -146.5t24 -44 t33.5 -17t68.5 -5h355h15q36 0 53 4q20 5 34 18q49 43 49 264v72h-334v197h566v-183q0 -225 -30.5 -340t-94.5 -172q-36 -33 -85 -45t-149 -12h-403q-100 0 -149 12t-85 45q-34 30 -54.5 67t-39 108t-27 189.5t-8.5 295.5z" />
<glyph unicode="H" horiz-adv-x="1478" d="M168 0v1434h229v-592h684v592h230v-1434h-230v645h-684v-645h-229z" />
<glyph unicode="I" horiz-adv-x="589" d="M180 0v1434h230v-1434h-230z" />
<glyph unicode="J" horiz-adv-x="1181" d="M61 475h222q5 -129 12 -180t24 -68q30 -30 105 -30h98q181 0 213 32q26 26 37.5 92t11.5 250v863h230v-842q0 -177 -12 -278t-33 -149t-62 -89q-47 -47 -126 -63.5t-228 -16.5h-145q-186 0 -256 70q-49 49 -68.5 132t-22.5 277z" />
<glyph unicode="K" horiz-adv-x="1284" d="M168 0v1434h229v-592h123l471 592h266l-552 -676l565 -758h-273l-473 645h-127v-645h-229z" />
<glyph unicode="L" horiz-adv-x="1150" d="M168 0v1434h229v-1237h695v-197h-924z" />
<glyph unicode="M" horiz-adv-x="1828" d="M168 0v1434h356q42 0 60.5 -15.5t29.5 -56.5l291 -1063h31l289 1063q11 41 28.5 56.5t59.5 15.5h348v-1434h-234v1219h-30l-334 -1156q-12 -41 -26 -52t-54 -11h-147q-41 0 -55 11.5t-25 51.5l-334 1176h-31v-1239h-223z" />
<glyph unicode="N" horiz-adv-x="1476" d="M168 0v1434h254q44 0 64.5 -13.5t39.5 -54.5l529 -1006h30v1074h224v-1434h-234q-45 0 -66 13.5t-40 54.5l-547 1054h-31v-1122h-223z" />
<glyph unicode="O" horiz-adv-x="1409" d="M137 717q0 232 17 370t42 193t70 96q36 33 85 45.5t149 12.5h409q100 0 149 -12.5t85 -45.5q45 -41 70 -96t42 -193t17 -370q0 -177 -8.5 -295.5t-27 -189.5t-39 -108t-54.5 -67q-36 -33 -85 -45t-149 -12h-409q-100 0 -149 12t-85 45q-34 30 -54.5 67t-39 108t-27 189.5 t-8.5 295.5zM371 717q0 -193 8.5 -307.5t18.5 -146.5t24 -44t33.5 -17t68.5 -5h361h15q36 0 53 4q20 5 34 18q14 12 24 44t18.5 146.5t8.5 307.5t-8.5 307t-18.5 146t-24 44q-26 23 -102 23h-361q-76 0 -102 -23q-14 -12 -24 -44t-18.5 -146t-8.5 -307z" />
<glyph unicode="P" horiz-adv-x="1290" d="M168 0v1434h715q162 0 221 -54q35 -32 58.5 -72t41 -125.5t17.5 -207.5q0 -167 -31.5 -255t-85.5 -138q-59 -54 -221 -54h-486v-528h-229zM397 725h428q90 0 111 18q51 40 51 238t-51 238q-21 18 -111 18h-428v-512z" />
<glyph unicode="Q" horiz-adv-x="1409" d="M137 717q0 232 17 370t42 193t70 96q36 33 85 45.5t149 12.5h409q100 0 149 -12.5t85 -45.5q45 -41 70 -96t42 -193t17 -370q0 -177 -8.5 -295.5t-27 -189.5t-39 -108t-54.5 -67q-32 -29 -71 -41.5t-109 -15.5l65 -221h-213l-65 221h-250q-100 0 -149 12t-85 45 q-34 30 -54.5 67t-39 108t-27 189.5t-8.5 295.5zM371 717q0 -193 8.5 -307.5t18.5 -146.5t24 -44t33.5 -17t68.5 -5h166l-84 288h213l86 -288q59 2 82 22q14 12 24 44t18.5 146.5t8.5 307.5t-8.5 307t-18.5 146t-24 44q-26 23 -102 23h-361q-76 0 -102 -23q-14 -12 -24 -44 t-18.5 -146t-8.5 -307z" />
<glyph unicode="R" horiz-adv-x="1378" d="M168 0v1434h772q145 0 205 -60q46 -46 69 -122t23 -226q0 -125 -25 -197t-73.5 -104.5t-134.5 -44.5v-4q62 -12 98 -26t64.5 -44t41 -78.5t15.5 -126.5q12 -305 22 -401h-229q-21 143 -27 395q-1 81 -11 114.5t-34 53.5q-20 17 -53 23t-96 6h-398v-592h-229zM397 780h475 q68 0 89 21q45 45 45 211t-43 209q-16 16 -91 16h-475v-457z" />
<glyph unicode="S" horiz-adv-x="1337" d="M125 451h227q3 -128 8.5 -173.5t18.5 -58.5q22 -22 90 -22h403q73 0 95 22t22 195q0 84 -4 113.5t-20 45.5q-22 22 -95 27l-450 41q-149 14 -209 74q-42 42 -55 105t-13 208q0 142 18 217t66 123q66 66 217 66h443q87 0 138.5 -13.5t84.5 -46.5q44 -44 60 -117t22 -264 h-227q-3 121 -8.5 164.5t-18.5 56.5q-23 23 -90 23h-363q-69 0 -92 -23q-22 -22 -22 -184q0 -82 4 -112t20 -46q11 -11 28.5 -15t65.5 -9l451 -41q145 -12 205 -72q42 -42 57 -108t15 -211q0 -151 -17.5 -226t-66.5 -124q-66 -66 -222 -66h-481q-87 0 -138.5 13t-84.5 46 q-45 45 -62 122.5t-20 269.5z" />
<glyph unicode="T" horiz-adv-x="1228" d="M49 1237v197h1131v-197h-451v-1237h-229v1237h-451z" />
<glyph unicode="U" horiz-adv-x="1452" d="M168 596v838h229v-887q0 -123 7 -190t15.5 -85t26.5 -36t62.5 -25.5t157.5 -7.5h129q112 0 154 7t61 26t26.5 37t13 82t5.5 192v887h229v-838q0 -177 -11.5 -276.5t-32 -145.5t-62.5 -88q-48 -48 -128.5 -67t-224.5 -19h-209q-140 0 -219 19t-125 65q-42 42 -62 87.5 t-31 144.5t-11 280z" />
<glyph unicode="V" horiz-adv-x="1310" d="M37 1434h248l362 -1213h31l362 1213h232l-436 -1385q-10 -35 -25.5 -45t-56.5 -10h-199q-39 0 -55.5 10.5t-26.5 44.5z" />
<glyph unicode="W" horiz-adv-x="1939" d="M63 1434h244l219 -1143h27l258 1079q9 42 27 55t63 13h150q45 0 63 -13t27 -55l256 -1079h26l222 1143h231l-303 -1391q-6 -31 -21.5 -40t-60.5 -9h-166q-44 0 -59.5 9.5t-22.5 43.5l-258 1079h-27l-258 -1079q-7 -33 -23.5 -43t-58.5 -10h-167q-45 0 -60.5 8.5 t-21.5 40.5z" />
<glyph unicode="X" horiz-adv-x="1316" d="M35 0l493 733l-477 701h266l345 -514h18l342 514h254l-477 -705l493 -729h-256l-372 543h-19l-366 -543h-244z" />
<glyph unicode="Y" horiz-adv-x="1243" d="M6 1434h252l360 -637h17l354 637h248l-498 -861v-573h-229v567z" />
<glyph unicode="Z" horiz-adv-x="1280" d="M98 0v150l807 1087h-766v197h1055v-150l-807 -1087h797v-197h-1086z" />
<glyph unicode="[" horiz-adv-x="937" d="M211 -307v1741h590v-181h-383v-1380h383v-180h-590z" />
<glyph unicode="\" d="M61 1454h211l836 -1782h-211z" />
<glyph unicode="]" horiz-adv-x="937" d="M137 -127h383v1380h-383v181h590v-1741h-590v180z" />
<glyph unicode="^" horiz-adv-x="1073" d="M168 979v10l307 451h123l307 -451v-10h-162l-208 307l-209 -307h-158z" />
<glyph unicode="_" d="M-4 -133h1032v-174h-1032v174z" />
<glyph unicode="`" d="M229 1464v11h340l174 -220v-10h-206z" />
<glyph unicode="a" horiz-adv-x="1175" d="M109 297q0 193 67 260q29 29 58 43.5t105 25.5t204 11q170 0 272 -31v123q0 92 -5.5 128.5t-18.5 49.5q-19 19 -97 19h-221q-69 0 -88 -19t-25 -137h-206q1 121 17 180.5t50 93.5q33 33 74.5 47.5t112.5 14.5h340q89 0 137 -14.5t78 -44.5q38 -38 50.5 -96.5t12.5 -205.5 v-745h-211v135q-104 -87 -151.5 -112t-118.5 -25h-172q-77 0 -121.5 12t-77.5 45q-65 65 -65 242zM317 332q0 -114 21 -135q17 -17 86 -17h158q62 0 110 13.5t123 54.5v229h-287q-97 0 -133 -6.5t-51 -21.5t-21 -39.5t-6 -77.5z" />
<glyph unicode="b" horiz-adv-x="1234" d="M156 0v1475h213v-502q103 85 154.5 110t121.5 25h150q87 0 138 -16t87 -52q48 -48 68 -145.5t20 -341.5t-20 -341.5t-68 -145.5q-36 -36 -87 -52t-138 -16h-150q-70 0 -121.5 24.5t-154.5 108.5v-131h-213zM369 254q126 -66 215 -66h159q86 0 113 27q24 24 31.5 89 t7.5 249t-7.5 249t-31.5 89q-27 27 -113 27h-168q-82 0 -206 -62v-602z" />
<glyph unicode="c" horiz-adv-x="1136" d="M127 553q0 245 18.5 339.5t73.5 149.5q64 64 219 64h336q71 0 111.5 -13.5t68.5 -41.5q41 -41 57.5 -112t16.5 -222h-207q-4 160 -24 180q-18 18 -76 18h-256q-74 0 -94 -20q-17 -17 -24 -81t-7 -261t7 -261t24 -81q21 -21 94 -21h258q61 0 80 19q22 22 22 194h207 q0 -165 -16.5 -235t-59.5 -113q-55 -55 -180 -55h-338q-156 0 -219 63q-55 55 -73.5 150t-18.5 340z" />
<glyph unicode="d" horiz-adv-x="1234" d="M127 553q0 244 20 341.5t68 145.5q36 36 87 52t138 16h150q68 0 120 -25t156 -110v502h213v-1475h-213v133q-104 -84 -156 -109.5t-120 -25.5h-150q-87 0 -138 16t-87 52q-48 48 -68 145.5t-20 341.5zM340 553q0 -184 7.5 -249t31.5 -89q27 -27 113 -27h159q91 0 215 66 v602q-121 62 -207 62h-167q-86 0 -113 -27q-24 -24 -31.5 -89t-7.5 -249z" />
<glyph unicode="e" horiz-adv-x="1173" d="M127 553q0 245 18.5 339.5t73.5 149.5q64 64 219 64h303q158 0 220 -62q55 -55 73.5 -148.5t18.5 -332.5v-55q0 -25 -25 -25h-690q2 -247 31 -276q12 -12 30 -16.5t64 -4.5h287q52 0 73 21q11 11 15.5 38t7.5 99h207q-3 -128 -19 -188t-57 -101q-55 -55 -180 -55h-359 q-156 0 -219 63q-55 55 -73.5 150t-18.5 340zM338 653h504q0 129 -8 180t-23 66q-21 21 -94 21h-254q-45 0 -64 -5t-32 -18q-15 -15 -21.5 -63t-7.5 -181z" />
<glyph unicode="f" horiz-adv-x="755" d="M66 920v186h182v57q0 103 14 160t45 88q33 33 74 48.5t113 15.5h196v-183h-149q-48 0 -64 -16t-16 -111v-59h248v-186h-246v-920h-215v920h-182z" />
<glyph unicode="g" horiz-adv-x="1234" d="M129 614q0 146 10.5 232t27.5 123.5t50 70.5q36 36 87 52t138 16h148q68 0 120 -25t156 -110v133h213v-1053q0 -143 -14.5 -202t-54.5 -99q-30 -30 -78 -44.5t-137 -14.5h-396q-123 0 -180 57q-31 31 -45 80.5t-14 136.5h213q3 -63 22 -82q16 -16 84 -16h269q78 0 96 18 q13 13 17.5 39t4.5 99v229q-105 -84 -156.5 -108.5t-119.5 -24.5h-148q-88 0 -138.5 15.5t-86.5 51.5q-33 33 -50 70.5t-27.5 123.5t-10.5 232zM342 614q0 -158 7.5 -206t31.5 -72q27 -27 113 -27h165q89 0 207 62v483q-126 66 -215 66h-157q-86 0 -113 -27 q-24 -24 -31.5 -72.5t-7.5 -206.5z" />
<glyph unicode="h" horiz-adv-x="1224" d="M156 0v1475h213v-502q103 85 154.5 110t121.5 25h174q127 0 191 -64q35 -35 50 -87.5t15 -161.5v-795h-213v780q0 79 -28 107q-18 18 -40.5 24.5t-74.5 6.5h-144q-82 0 -206 -62v-856h-213z" />
<glyph unicode="i" horiz-adv-x="524" d="M141 1266v229h242v-229h-242zM156 0v1106h213v-1106h-213z" />
<glyph unicode="j" horiz-adv-x="552" d="M-6 -127v-174q68 -10 123 -10q150 0 211 61q38 38 53.5 96t15.5 174v1086h-213v-1129q0 -66 -22 -88q-16 -16 -70 -16h-98zM170 1266v229h242v-229h-242z" />
<glyph unicode="k" horiz-adv-x="1093" d="M156 0v1475h213v-824h80l366 455h252l-453 -531l469 -575h-266l-375 473h-73v-473h-213z" />
<glyph unicode="l" horiz-adv-x="524" d="M156 0v1475h213v-1475h-213z" />
<glyph unicode="m" horiz-adv-x="1849" d="M156 0v1106h213v-133q103 85 154.5 110t121.5 25h133q127 0 191 -64q36 -42 49 -83q115 93 168.5 120t124.5 27h133q126 0 190 -64q35 -35 50.5 -87.5t15.5 -161.5v-795h-213v780q0 78 -29 107q-18 18 -40.5 24.5t-74.5 6.5h-102q-85 0 -209 -62q2 -18 2 -61v-795h-213 v780q0 79 -28 107q-18 18 -40.5 24.5t-74.5 6.5h-103q-82 0 -206 -62v-856h-213z" />
<glyph unicode="n" horiz-adv-x="1224" d="M156 0v1106h213v-133q103 85 154.5 110t121.5 25h174q127 0 191 -64q35 -35 50 -87.5t15 -161.5v-795h-213v780q0 79 -28 107q-18 18 -40.5 24.5t-74.5 6.5h-144q-82 0 -206 -62v-856h-213z" />
<glyph unicode="o" horiz-adv-x="1202" d="M127 553q0 245 18.5 339.5t73.5 149.5q64 64 219 64h326q155 0 219 -64q55 -55 73.5 -149.5t18.5 -339.5t-18.5 -340t-73.5 -150q-63 -63 -219 -63h-326q-156 0 -219 63q-55 55 -73.5 150t-18.5 340zM340 553q0 -197 7 -261t24 -81q21 -21 94 -21h272q73 0 94 21 q17 17 24 81t7 261t-7 261t-24 81q-20 20 -94 20h-272q-74 0 -94 -20q-17 -17 -24 -81t-7 -261z" />
<glyph unicode="p" horiz-adv-x="1234" d="M156 -307v1413h213v-133q103 85 154.5 110t121.5 25h150q87 0 138 -16t87 -52q48 -48 68 -145.5t20 -341.5t-20 -341.5t-68 -145.5q-36 -36 -87 -52t-138 -16h-150q-70 0 -121.5 24.5t-154.5 108.5v-438h-213zM369 254q126 -66 215 -66h159q86 0 113 27q24 24 31.5 89 t7.5 249t-7.5 249t-31.5 89q-27 27 -113 27h-168q-82 0 -206 -62v-602z" />
<glyph unicode="q" horiz-adv-x="1234" d="M127 553q0 244 20 341.5t68 145.5q36 36 87 52t138 16h150q68 0 120 -25t156 -110v133h213v-1413h-213v440q-104 -84 -156 -109.5t-120 -25.5h-150q-87 0 -138 16t-87 52q-48 48 -68 145.5t-20 341.5zM340 553q0 -184 7.5 -249t31.5 -89q27 -27 113 -27h159q91 0 215 66 v602q-121 62 -207 62h-167q-86 0 -113 -27q-24 -24 -31.5 -89t-7.5 -249z" />
<glyph unicode="r" horiz-adv-x="817" d="M156 0v1106h213v-162q88 93 140.5 128.5t115.5 35.5h131v-219h-156q-124 0 -231 -41v-848h-213z" />
<glyph unicode="s" horiz-adv-x="1126" d="M115 348h196q3 -85 7.5 -115.5t13.5 -39.5q15 -15 69 -15h324q55 0 72 17q18 18 18 114q0 93 -20 113q-17 17 -70 22l-375 39q-68 8 -104 20t-60 36q-33 33 -45 87.5t-12 166.5q0 194 68 262q51 51 165 51h404q119 0 166 -47q35 -35 48.5 -94.5t16.5 -198.5h-196 q-4 126 -23 145q-17 17 -67 17h-293q-53 0 -68 -15q-20 -20 -20 -108q0 -55 3 -77t13 -32q17 -17 76 -24l381 -39q118 -11 160 -53q30 -30 40.5 -87.5t10.5 -170.5q0 -114 -15 -175.5t-51 -97.5q-49 -49 -166 -49h-426q-129 0 -176 47q-36 36 -49 94.5t-16 206.5z" />
<glyph unicode="t" horiz-adv-x="792" d="M41 920v186h192v274h216v-274h264v-186h-264v-646q0 -61 14 -75q11 -11 80 -11h168v-143l-125 -37q-62 -16 -140 -16q-114 0 -165 51q-27 27 -37.5 65.5t-10.5 106.5v705h-192z" />
<glyph unicode="u" horiz-adv-x="1224" d="M150 311v795h212v-780q0 -78 29 -107q18 -18 40.5 -24.5t74.5 -6.5h143q86 0 207 62v856h213v-1106h-213v133q-104 -84 -156 -109.5t-120 -25.5h-174q-128 0 -191 63q-35 35 -50 87.5t-15 162.5z" />
<glyph unicode="v" horiz-adv-x="1073" d="M29 1106h233l270 -864h25l266 864h221l-364 -1057q-12 -32 -27.5 -42.5t-48.5 -10.5h-135q-33 0 -48.5 10.5t-27.5 42.5z" />
<glyph unicode="w" horiz-adv-x="1564" d="M51 1106h221l156 -864h21l192 811q7 32 24 44.5t52 12.5h143q34 0 51.5 -12.5t24.5 -44.5l199 -811h20l152 864h206l-225 -1055q-7 -33 -23 -44t-51 -11h-159q-34 0 -50 13t-24 44l-190 789h-17l-190 -789q-8 -31 -24.5 -44t-49.5 -13h-160q-35 0 -51 11t-23 44z" />
<glyph unicode="x" horiz-adv-x="1079" d="M20 0l383 565l-380 541h249l269 -391h18l264 391h234l-383 -553l385 -553h-250l-272 399h-19l-266 -399h-232z" />
<glyph unicode="y" horiz-adv-x="1122" d="M37 1106h244l290 -805h15l258 805h229l-452 -1280q-26 -73 -72.5 -105t-126.5 -32q-83 0 -225 14v178h200q19 0 28 8t17 29l31 82z" />
<glyph unicode="z" horiz-adv-x="1028" d="M76 0v127l594 788h-561v191h847v-115l-604 -801h592v-190h-868z" />
<glyph unicode="{" horiz-adv-x="942" d="M127 498v131q183 17 221 55q25 25 25 70q0 29 -18.5 147t-18.5 176q0 72 54.5 145.5t230.5 231.5h157q-135 -168 -179 -240.5t-44 -111.5q0 -48 18.5 -163.5t18.5 -156.5q0 -96 -45.5 -140.5t-184.5 -76.5v-4q138 -31 184 -80t46 -147q0 -34 -18.5 -152.5t-18.5 -156.5 q0 -39 44 -112t179 -241h-157q-176 158 -230.5 231.5t-54.5 145.5q0 49 18.5 171t18.5 163q0 36 -21 57q-41 41 -225 58z" />
<glyph unicode="|" horiz-adv-x="714" d="M260 -328v1925h195v-1925h-195z" />
<glyph unicode="}" horiz-adv-x="942" d="M164 -328q135 168 179 241t44 112q0 38 -18.5 156.5t-18.5 152.5q0 98 46 147t184 80v4q-139 32 -184.5 76.5t-45.5 140.5q0 41 18.5 156.5t18.5 163.5q0 39 -44 111.5t-179 240.5h158q175 -157 229.5 -230.5t54.5 -146.5q0 -58 -18.5 -176t-18.5 -147q0 -45 25 -70 q38 -38 221 -55v-131q-184 -17 -225 -58q-21 -21 -21 -57q0 -41 18.5 -163t18.5 -171q0 -73 -54.5 -146.5t-229.5 -230.5h-158z" />
<glyph unicode="~" horiz-adv-x="888" d="M137 522v129q0 74 29 103q26 26 78 26h30q37 0 70.5 -8t97.5 -33l144 -53l57 94h109v-129q0 -73 -29 -102q-27 -27 -78 -27h-31q-37 0 -70.5 8t-97.5 33l-143 53l-57 -94h-109z" />
<glyph unicode="&#xa1;" horiz-adv-x="686" d="M205 0v76l82 907h92l102 -907v-76h-276zM215 1161v273h256v-273h-256z" />
<glyph unicode="&#xa2;" horiz-adv-x="1114" d="M123 723q0 233 18.5 325.5t73.5 147.5q64 64 219 64h51v178h174v-178h89q71 0 111.5 -14t68.5 -42q41 -41 57 -111.5t16 -222.5h-200q-5 165 -25 185q-18 18 -76 18h-49v-700h51q62 0 80 18q23 23 23 199h201q0 -165 -16.5 -235t-59.5 -113q-56 -56 -180 -56h-91v-190 h-174v190h-51q-155 0 -219 64q-55 55 -73.5 147.5t-18.5 325.5zM332 723q0 -187 7 -250.5t23 -79.5q20 -20 95 -20h37v700h-37q-75 0 -95 -20q-16 -16 -23 -79.5t-7 -250.5z" />
<glyph unicode="&#xa3;" horiz-adv-x="1372" d="M113 0v197h188v376h-188v189h188v192q0 181 19.5 269t72.5 141q43 43 110 58.5t204 15.5h186q104 0 161.5 -14.5t94.5 -51.5q50 -50 66.5 -126.5t19.5 -272.5h-223q-3 127 -11 175t-24 64q-27 27 -121 27h-147q-117 0 -146 -29q-19 -19 -27 -69.5t-8 -163.5v-215h412 v-189h-412v-376h713v-197h-1128z" />
<glyph unicode="&#xa5;" horiz-adv-x="1376" d="M88 1434h252l344 -637h16l338 637h240l-418 -756h299v-191h-358v-487h-230v487h-364v191h301z" />
<glyph unicode="&#xa7;" horiz-adv-x="1318" d="M96 735q0 85 13.5 134.5t44.5 80.5q43 43 147 51q-22 58 -22 146q0 78 14 131t53 92q35 35 90.5 50.5t153.5 15.5h196q139 0 191 -52q36 -36 50 -91t17 -187h-206q-3 67 -8.5 93.5t-16.5 37.5q-16 16 -78 16h-127q-48 0 -66.5 -4.5t-29.5 -15.5q-18 -18 -18 -105 q0 -68 22 -90t94 -28l367 -29q83 -6 122.5 -18.5t67.5 -40.5q30 -30 43 -79t13 -145q0 -85 -13.5 -134.5t-44.5 -80.5q-46 -46 -147 -51q22 -58 22 -145q0 -78 -14 -131.5t-53 -92.5q-34 -34 -90 -49.5t-154 -15.5h-197q-139 0 -190 51q-36 36 -50.5 92t-17.5 187h207 q3 -68 8.5 -94t16.5 -37q17 -17 78 -17h127q48 0 66 4.5t30 16.5q18 18 18 104q0 68 -22 90q-23 23 -94 29l-367 29q-83 6 -122.5 18.5t-67.5 40.5q-30 30 -43 79t-13 144zM293 745q0 -29 0.5 -43t5 -30t14.5 -27q19 -22 101 -27l489 -34q83 -5 98 10q25 25 25 94 q0 29 -0.5 43t-5 30t-14.5 27q-19 22 -101 27l-489 35q-84 5 -99 -10q-24 -24 -24 -95z" />
<glyph unicode="&#xa8;" d="M209 1249v226h227v-226h-227zM588 1249v226h227v-226h-227z" />
<glyph unicode="&#xa9;" horiz-adv-x="1613" d="M182 717q0 272 35.5 409t99.5 201q36 38 72.5 59t104 34.5t168.5 13.5h290q146 0 217.5 -25t126.5 -82q64 -64 100 -201t36 -409t-36 -409.5t-100 -201.5q-36 -38 -72.5 -59t-103.5 -34t-168 -13h-290q-101 0 -168 13t-104 34.5t-73 58.5q-63 63 -99 202t-36 409z M250 717q0 -252 30 -380.5t87 -186.5q44 -48 108 -68.5t193 -20.5h278q130 0 192.5 19.5t106.5 66.5q57 59 88 187t31 383q0 254 -31 381t-88 186q-44 47 -106.5 67.5t-192.5 20.5h-278q-131 0 -194 -19.5t-107 -66.5q-57 -58 -87 -186t-30 -383zM506 731q0 187 16 259 t53 104q22 19 50 25.5t82 6.5h217q54 0 80.5 -6.5t46.5 -25.5q33 -30 46.5 -78t14.5 -148h-129q-2 106 -25 129q-13 13 -55 13h-178q-44 0 -57 -13q-27 -27 -27 -266t27 -266q12 -12 57 -12h178q39 0 55 12q8 8 12 16.5t8 40.5t5 88h131q-4 -116 -17 -163.5t-46 -77.5 q-21 -18 -47.5 -24.5t-79.5 -6.5h-219q-53 0 -80.5 7t-46.5 24q-25 22 -38.5 52t-23.5 106.5t-10 203.5z" />
<glyph unicode="&#xaa;" horiz-adv-x="1021" d="M180 864q0 142 49 191q29 29 85 44t173 15q111 0 191 -22v71q0 66 -2.5 88t-11.5 31q-12 12 -62 12h-172q-35 0 -45 -10t-12 -94h-158q1 88 11.5 132t35.5 69q26 26 53 34.5t82 8.5h232q64 0 98 -10t55 -31q30 -30 39.5 -72t9.5 -147v-529h-153v94q-70 -60 -108 -78 t-85 -18h-112q-55 0 -86.5 9.5t-57.5 35.5q-49 49 -49 176zM188 338v137h643v-137h-643zM340 887q0 -78 14 -92q13 -13 58 -13h100q44 0 79 10t87 39v158h-197q-71 0 -93.5 -2.5t-31.5 -11.5q-16 -16 -16 -88z" />
<glyph unicode="&#xab;" horiz-adv-x="1310" d="M133 477v152l295 301h248l-344 -375l348 -379h-252zM641 477v152l295 301h248l-344 -375l348 -379h-252z" />
<glyph unicode="&#xad;" horiz-adv-x="839" d="M127 543v219h586v-219h-586z" />
<glyph unicode="&#xae;" horiz-adv-x="864" d="M82 1038q0 256 76 336q32 32 70 46t118 14h172q80 0 119 -14.5t70 -45.5q75 -79 75 -336t-75 -336q-31 -31 -70 -45t-119 -14h-172q-80 0 -118.5 14t-69.5 45q-76 80 -76 336zM133 1038q0 -243 60 -303q23 -24 56 -34.5t101 -10.5h164q68 0 101.5 10.5t56.5 34.5 q59 59 59 303t-59 303q-23 24 -56.5 34.5t-101.5 10.5h-164q-68 0 -101 -10.5t-56 -34.5q-60 -60 -60 -303zM276 831v433h238q42 0 61 -19q27 -27 27 -104q0 -55 -16 -77.5t-54 -27.5v-2q37 -6 51 -21.5t17 -60.5q3 -105 6 -121h-74q-8 33 -8 115q0 39 -12 51q-12 9 -45 9 h-117v-175h-74zM350 1067h139q21 0 27 6q14 14 14 62q0 45 -14 59q-6 6 -27 6h-139v-133z" />
<glyph unicode="&#xaf;" d="M203 1249v174h618v-174h-618z" />
<glyph unicode="&#xb0;" horiz-adv-x="872" d="M131 1092q0 133 15.5 193t52.5 97q52 52 159 52h156q108 0 160 -52q37 -37 52 -96.5t15 -193.5t-15 -194t-52 -97q-51 -51 -160 -51h-156q-108 0 -159 51q-37 37 -52.5 97.5t-15.5 193.5zM293 1092q0 -154 20 -174q10 -11 22 -15t44 -4h115q32 0 43.5 4t21.5 15 q21 21 21 174t-21 174q-9 11 -21 14.5t-44 3.5h-115q-33 0 -45 -3.5t-21 -14.5q-20 -20 -20 -174z" />
<glyph unicode="&#xb1;" horiz-adv-x="1040" d="M115 184v193h811v-193h-811zM115 799v192h309v309h192v-309h310v-192h-310v-310h-192v310h-309z" />
<glyph unicode="&#xb4;" d="M281 1245v10l174 220h340v-11l-308 -219h-206z" />
<glyph unicode="&#xb6;" horiz-adv-x="1146" d="M90 987q0 167 31.5 254t85.5 139q57 54 221 54h551v-1434h-229v528h-322q-83 0 -128 11t-79 43q-27 25 -46.5 52t-40.5 73t-32.5 117t-11.5 163z" />
<glyph unicode="&#xb7;" horiz-adv-x="591" d="M168 516v272h256v-272h-256z" />
<glyph unicode="&#xb8;" d="M268 -272h242q33 0 41 8t8 39t-8 39t-41 8h-90v121h127q96 0 127 -31q39 -39 39 -139q0 -99 -39 -138q-32 -32 -133 -32h-156l-117 82v43z" />
<glyph unicode="&#xba;" horiz-adv-x="1101" d="M201 1042q0 149 16.5 223.5t56.5 114.5q29 29 68.5 41.5t106.5 12.5h215q67 0 106 -12.5t68 -41.5q40 -40 56.5 -114.5t16.5 -223.5q0 -154 -16.5 -229t-56.5 -115q-28 -28 -67 -40.5t-107 -12.5h-215q-68 0 -107.5 12.5t-67.5 40.5q-40 40 -56.5 115t-16.5 229zM205 338 v137h702v-137h-702zM377 1042q0 -198 29 -227q18 -18 75 -18h150q58 0 76 18q28 28 28 227q0 194 -28 222q-18 18 -76 18h-150q-57 0 -75 -18q-29 -29 -29 -222z" />
<glyph unicode="&#xbb;" horiz-adv-x="1310" d="M123 176l348 379l-344 375h248l295 -301v-152l-295 -301h-252zM631 176l348 379l-344 375h248l295 -301v-152l-295 -301h-252z" />
<glyph unicode="&#xbf;" horiz-adv-x="1118" d="M102 369q0 137 15 196t65 109q39 39 213 117q80 36 109 65q28 28 35 127h170v-59q0 -98 -11 -143.5t-39 -73.5q-45 -45 -184 -105q-87 -38 -115 -65q-17 -17 -23.5 -50t-6.5 -110q0 -134 24 -158q18 -18 90 -18h250q45 0 62.5 4t29.5 16q22 22 27 234h225 q-2 -185 -17.5 -267.5t-57.5 -124.5q-63 -63 -230 -63h-323q-91 0 -145 16.5t-89 51.5q-42 42 -58 107t-16 194zM496 1161v273h256v-273h-256z" />
<glyph unicode="&#xc0;" horiz-adv-x="1347" d="M39 0l455 1384q11 35 25.5 45.5t55.5 10.5h199q39 0 54.5 -10.5t27.5 -45.5l455 -1384h-248l-125 403h-547l-125 -403h-227zM281 1772v10h340l174 -219v-11h-207zM451 596h426l-197 643h-31z" />
<glyph unicode="&#xc1;" horiz-adv-x="1347" d="M39 0l455 1384q11 35 25.5 45.5t55.5 10.5h199q39 0 54.5 -10.5t27.5 -45.5l455 -1384h-248l-125 403h-547l-125 -403h-227zM451 596h426l-197 643h-31zM541 1552v11l174 219h340v-10l-307 -220h-207z" />
<glyph unicode="&#xc2;" horiz-adv-x="1347" d="M39 0l455 1384q11 35 25.5 45.5t55.5 10.5h199q39 0 54.5 -10.5t27.5 -45.5l455 -1384h-248l-125 403h-547l-125 -403h-227zM340 1552v11l205 239h246l204 -239v-11h-178l-151 107l-152 -107h-174zM451 596h426l-197 643h-31z" />
<glyph unicode="&#xc3;" horiz-adv-x="1347" d="M39 0l455 1384q11 35 25.5 45.5t55.5 10.5h199q39 0 54.5 -10.5t27.5 -45.5l455 -1384h-248l-125 403h-547l-125 -403h-227zM360 1552v129q0 74 29 103q26 26 78 26h31q37 0 70.5 -8t97.5 -33l143 -53l57 94h109v-129q0 -73 -29 -102q-27 -27 -78 -27h-30q-37 0 -70.5 8 t-97.5 33l-144 54l-57 -95h-109zM451 596h426l-197 643h-31z" />
<glyph unicode="&#xc4;" horiz-adv-x="1347" d="M39 0l455 1384q11 35 25.5 45.5t55.5 10.5h199q39 0 54.5 -10.5t27.5 -45.5l455 -1384h-248l-125 403h-547l-125 -403h-227zM365 1556v226h227v-226h-227zM451 596h426l-197 643h-31zM743 1556v226h228v-226h-228z" />
<glyph unicode="&#xc5;" horiz-adv-x="1347" d="M39 0l444 1356q-20 12 -28 20q-30 30 -42 66.5t-12 97.5t12 97.5t42 66.5q41 41 137 41h168q96 0 137 -41q30 -30 41.5 -66.5t11.5 -97.5t-11.5 -97.5t-41.5 -66.5q-13 -13 -31 -22l445 -1354h-248l-125 403h-547l-125 -403h-227zM451 596h426l-197 643h-31zM543 1540 q0 -62 16 -78q12 -12 53 -12h127q42 0 54 12q16 16 16 78t-16 78q-12 12 -54 12h-127q-41 0 -53 -12q-16 -16 -16 -78z" />
<glyph unicode="&#xc6;" horiz-adv-x="1996" d="M0 0l743 1374q20 35 38 47.5t57 12.5h1058v-197h-749v-395h620v-197h-620v-448h749v-197h-978v444h-447l-238 -444h-233zM571 637h347v612h-21z" />
<glyph unicode="&#xc7;" horiz-adv-x="1345" d="M137 717q0 232 17 370t42 193t70 96q36 33 85 45.5t149 12.5h397q99 0 148 -12.5t85 -45.5q63 -56 90.5 -145t30.5 -268h-229q-7 216 -47 251q-26 23 -103 23h-348q-76 0 -102 -23q-14 -12 -24 -44t-18.5 -146t-8.5 -307t8.5 -307.5t18.5 -146.5t24 -44t33.5 -17t68.5 -5 h348q48 -1 68.5 4.5t34.5 17.5q20 17 31.5 73t15.5 202h231q-5 -141 -19.5 -225t-37.5 -129t-66 -83q-36 -33 -84.5 -45t-148.5 -12h-397q-100 0 -149 12t-85 45q-34 30 -54.5 67t-39 108t-27 189.5t-8.5 295.5zM451 -272h241q33 0 41 8t8 39t-8 39t-41 8h-90v121h127 q96 0 127 -31q39 -39 39 -139q0 -99 -39 -138q-32 -32 -133 -32h-156l-116 82v43z" />
<glyph unicode="&#xc8;" horiz-adv-x="1247" d="M168 0v1434h979v-197h-750v-395h621v-197h-621v-448h750v-197h-979zM272 1772v10h340l174 -219v-11h-206z" />
<glyph unicode="&#xc9;" horiz-adv-x="1247" d="M168 0v1434h979v-197h-750v-395h621v-197h-621v-448h750v-197h-979zM532 1552v11l175 219h340v-10l-308 -220h-207z" />
<glyph unicode="&#xca;" horiz-adv-x="1247" d="M168 0v1434h979v-197h-750v-395h621v-197h-621v-448h750v-197h-979zM332 1552v11l205 239h245l205 -239v-11h-178l-152 107l-151 -107h-174z" />
<glyph unicode="&#xcb;" horiz-adv-x="1247" d="M168 0v1434h979v-197h-750v-395h621v-197h-621v-448h750v-197h-979zM356 1556v226h228v-226h-228zM735 1556v226h228v-226h-228z" />
<glyph unicode="&#xcc;" horiz-adv-x="589" d="M-92 1772v10h340l174 -219v-11h-207zM180 0v1434h230v-1434h-230z" />
<glyph unicode="&#xcd;" horiz-adv-x="589" d="M168 1552v11l174 219h340v-10l-307 -220h-207zM180 0v1434h230v-1434h-230z" />
<glyph unicode="&#xce;" horiz-adv-x="589" d="M-33 1552v11l205 239h246l205 -239v-11h-179l-151 107l-152 -107h-174zM180 0v1434h230v-1434h-230z" />
<glyph unicode="&#xcf;" horiz-adv-x="589" d="M-8 1556v226h227v-226h-227zM180 0v1434h230v-1434h-230zM371 1556v226h227v-226h-227z" />
<glyph unicode="&#xd0;" horiz-adv-x="1417" d="M-4 629v188h192v617h623q129 0 208 -23t140 -78q72 -66 105.5 -211t33.5 -405t-33.5 -405.5t-105.5 -211.5q-60 -54 -139 -77t-209 -23h-623v629h-192zM418 197h393q71 0 108 8.5t66 36.5q43 40 61.5 139.5t18.5 333.5q0 237 -18.5 337t-61.5 140q-32 29 -67 37t-107 8 h-393v-420h315v-188h-315v-432z" />
<glyph unicode="&#xd1;" horiz-adv-x="1476" d="M168 0v1434h254q44 0 64.5 -13.5t39.5 -54.5l529 -1006h30v1074h224v-1434h-234q-45 0 -66 13.5t-40 54.5l-547 1054h-31v-1122h-223zM430 1552v129q0 74 29 103q26 26 78 26h30q37 0 70.5 -8t97.5 -33l144 -53l57 94h108v-129q0 -74 -28 -102q-27 -27 -78 -27h-31 q-37 0 -70.5 8t-97.5 33l-143 54l-57 -95h-109z" />
<glyph unicode="&#xd2;" horiz-adv-x="1409" d="M137 717q0 232 17 370t42 193t70 96q36 33 85 45.5t149 12.5h409q100 0 149 -12.5t85 -45.5q45 -41 70 -96t42 -193t17 -370q0 -177 -8.5 -295.5t-27 -189.5t-39 -108t-54.5 -67q-36 -33 -85 -45t-149 -12h-409q-100 0 -149 12t-85 45q-34 30 -54.5 67t-39 108t-27 189.5 t-8.5 295.5zM317 1772v10h340l174 -219v-11h-206zM371 717q0 -193 8.5 -307.5t18.5 -146.5t24 -44t33.5 -17t68.5 -5h361q48 -1 68 4t34 18q14 12 24 44t18.5 146.5t8.5 307.5t-8.5 307t-18.5 146t-24 44q-26 23 -102 23h-361q-76 0 -102 -23q-14 -12 -24 -44t-18.5 -146 t-8.5 -307z" />
<glyph unicode="&#xd3;" horiz-adv-x="1409" d="M137 717q0 232 17 370t42 193t70 96q36 33 85 45.5t149 12.5h409q100 0 149 -12.5t85 -45.5q45 -41 70 -96t42 -193t17 -370q0 -177 -8.5 -295.5t-27 -189.5t-39 -108t-54.5 -67q-36 -33 -85 -45t-149 -12h-409q-100 0 -149 12t-85 45q-34 30 -54.5 67t-39 108t-27 189.5 t-8.5 295.5zM371 717q0 -193 8.5 -307.5t18.5 -146.5t24 -44t33.5 -17t68.5 -5h361q48 -1 68 4t34 18q14 12 24 44t18.5 146.5t8.5 307.5t-8.5 307t-18.5 146t-24 44q-26 23 -102 23h-361q-76 0 -102 -23q-14 -12 -24 -44t-18.5 -146t-8.5 -307zM578 1552v11l174 219h340 v-10l-308 -220h-206z" />
<glyph unicode="&#xd4;" horiz-adv-x="1409" d="M137 717q0 232 17 370t42 193t70 96q36 33 85 45.5t149 12.5h409q100 0 149 -12.5t85 -45.5q45 -41 70 -96t42 -193t17 -370q0 -177 -8.5 -295.5t-27 -189.5t-39 -108t-54.5 -67q-36 -33 -85 -45t-149 -12h-409q-100 0 -149 12t-85 45q-34 30 -54.5 67t-39 108t-27 189.5 t-8.5 295.5zM371 717q0 -193 8.5 -307.5t18.5 -146.5t24 -44t33.5 -17t68.5 -5h361q48 -1 68 4t34 18q14 12 24 44t18.5 146.5t8.5 307.5t-8.5 307t-18.5 146t-24 44q-26 23 -102 23h-361q-76 0 -102 -23q-14 -12 -24 -44t-18.5 -146t-8.5 -307zM377 1552v11l205 239h245 l205 -239v-11h-178l-152 107l-151 -107h-174z" />
<glyph unicode="&#xd5;" horiz-adv-x="1409" d="M137 717q0 232 17 370t42 193t70 96q36 33 85 45.5t149 12.5h409q100 0 149 -12.5t85 -45.5q45 -41 70 -96t42 -193t17 -370q0 -177 -8.5 -295.5t-27 -189.5t-39 -108t-54.5 -67q-36 -33 -85 -45t-149 -12h-409q-100 0 -149 12t-85 45q-34 30 -54.5 67t-39 108t-27 189.5 t-8.5 295.5zM371 717q0 -193 8.5 -307.5t18.5 -146.5t24 -44t33.5 -17t68.5 -5h361q48 -1 68 4t34 18q14 12 24 44t18.5 146.5t8.5 307.5t-8.5 307t-18.5 146t-24 44q-26 23 -102 23h-361q-76 0 -102 -23q-14 -12 -24 -44t-18.5 -146t-8.5 -307zM397 1552v129q0 74 29 103 q26 26 78 26h31q37 0 69.5 -8t97.5 -33l144 -53l57 94h109v-129q0 -73 -29 -102q-27 -27 -78 -27h-31q-37 0 -69.5 8t-97.5 33l-144 54l-57 -95h-109z" />
<glyph unicode="&#xd6;" horiz-adv-x="1409" d="M137 717q0 232 17 370t42 193t70 96q36 33 85 45.5t149 12.5h409q100 0 149 -12.5t85 -45.5q45 -41 70 -96t42 -193t17 -370q0 -177 -8.5 -295.5t-27 -189.5t-39 -108t-54.5 -67q-36 -33 -85 -45t-149 -12h-409q-100 0 -149 12t-85 45q-34 30 -54.5 67t-39 108t-27 189.5 t-8.5 295.5zM371 717q0 -193 8.5 -307.5t18.5 -146.5t24 -44t33.5 -17t68.5 -5h361q48 -1 68 4t34 18q14 12 24 44t18.5 146.5t8.5 307.5t-8.5 307t-18.5 146t-24 44q-26 23 -102 23h-361q-76 0 -102 -23q-14 -12 -24 -44t-18.5 -146t-8.5 -307zM401 1556v226h228v-226h-228 zM780 1556v226h228v-226h-228z" />
<glyph unicode="&#xd7;" horiz-adv-x="1040" d="M141 500l244 243l-244 244l135 135l244 -243l244 243l135 -135l-244 -244l244 -243l-135 -135l-244 243l-244 -243z" />
<glyph unicode="&#xd8;" horiz-adv-x="1409" d="M137 717q0 232 17 370t42 193t70 96q36 33 85 45.5t149 12.5h409h33l51 108h211l-74 -156q6 -3 13 -10q45 -41 70 -96t42 -193t17 -370q0 -177 -8.5 -295.5t-27 -189.5t-39 -108t-54.5 -67q-36 -33 -85 -45t-149 -12h-409h-33l-51 -109h-211l74 154l-13 12 q-34 30 -54.5 67t-39 108t-27 189.5t-8.5 295.5zM371 717q0 -341 26 -447l453 967h-326q-76 0 -102 -23q-14 -12 -24 -44t-18.5 -146t-8.5 -307zM559 197h326q48 -1 68 4t34 18q14 12 24 44t18.5 146.5t8.5 307.5q0 338 -26 444z" />
<glyph unicode="&#xd9;" horiz-adv-x="1452" d="M168 596v838h229v-887q0 -123 7 -190t15.5 -85t26.5 -36t62.5 -25.5t157.5 -7.5h129q112 0 154 7t61 26t26.5 37t13 82t5.5 192v887h229v-838q0 -177 -11.5 -276.5t-32 -145.5t-62.5 -88q-48 -48 -128.5 -67t-224.5 -19h-209q-140 0 -219 19t-125 65q-42 42 -62 87.5 t-31 144.5t-11 280zM338 1772v10h340l174 -219v-11h-207z" />
<glyph unicode="&#xda;" horiz-adv-x="1452" d="M168 596v838h229v-887q0 -123 7 -190t15.5 -85t26.5 -36t62.5 -25.5t157.5 -7.5h129q112 0 154 7t61 26t26.5 37t13 82t5.5 192v887h229v-838q0 -177 -11.5 -276.5t-32 -145.5t-62.5 -88q-48 -48 -128.5 -67t-224.5 -19h-209q-140 0 -219 19t-125 65q-42 42 -62 87.5 t-31 144.5t-11 280zM598 1552v11l174 219h340v-10l-307 -220h-207z" />
<glyph unicode="&#xdb;" horiz-adv-x="1452" d="M168 596v838h229v-887q0 -123 7 -190t15.5 -85t26.5 -36t62.5 -25.5t157.5 -7.5h129q112 0 154 7t61 26t26.5 37t13 82t5.5 192v887h229v-838q0 -177 -11.5 -276.5t-32 -145.5t-62.5 -88q-48 -48 -128.5 -67t-224.5 -19h-209q-140 0 -219 19t-125 65q-42 42 -62 87.5 t-31 144.5t-11 280zM397 1552v11l205 239h246l205 -239v-11h-179l-151 107l-152 -107h-174z" />
<glyph unicode="&#xdc;" horiz-adv-x="1452" d="M168 596v838h229v-887q0 -123 7 -190t15.5 -85t26.5 -36t62.5 -25.5t157.5 -7.5h129q112 0 154 7t61 26t26.5 37t13 82t5.5 192v887h229v-838q0 -177 -11.5 -276.5t-32 -145.5t-62.5 -88q-48 -48 -128.5 -67t-224.5 -19h-209q-140 0 -219 19t-125 65q-42 42 -62 87.5 t-31 144.5t-11 280zM422 1556v226h227v-226h-227zM801 1556v226h227v-226h-227z" />
<glyph unicode="&#xdd;" horiz-adv-x="1243" d="M6 1434h252l360 -637h17l354 637h248l-498 -861v-573h-229v567zM500 1552v11l174 219h340v-10l-307 -220h-207z" />
<glyph unicode="&#xde;" horiz-adv-x="1290" d="M168 0v1434h229v-265h486q163 0 221 -53q35 -32 58.5 -72t41 -125.5t17.5 -207.5q0 -116 -18 -199t-41.5 -123t-57.5 -72q-58 -53 -221 -53h-486v-264h-229zM397 461h428q90 0 111 18q51 40 51 238q0 197 -51 237q-22 19 -111 19h-428v-512z" />
<glyph unicode="&#xdf;" horiz-adv-x="1292" d="M68 920v186h182v47q0 187 69 256q34 34 79 50t118 16h313q151 0 209 -58q43 -43 60.5 -111.5t17.5 -205.5q0 -101 -18 -159t-53 -86.5t-99 -45.5v-2q87 -13 133.5 -45.5t69 -105.5t22.5 -205q0 -169 -19 -253t-65 -130q-37 -37 -95 -52.5t-150 -15.5h-226v182h175 q106 0 129 23q17 17 24.5 69t7.5 185q0 118 -7.5 166t-22.5 63q-21 21 -99 21h-184v190h131q83 0 102 19q14 14 20.5 52.5t6.5 129.5q0 143 -29 172q-22 22 -96 22h-203q-60 0 -82 -22q-26 -26 -26 -119v-1153h-213v920h-182z" />
<glyph unicode="&#xe0;" horiz-adv-x="1175" d="M109 297q0 193 67 260q29 29 58 43.5t105 25.5t204 11q170 0 272 -31v123q0 92 -5.5 128.5t-18.5 49.5q-19 19 -97 19h-221q-69 0 -88 -19t-25 -137h-206q1 121 17 180.5t50 93.5q33 33 74.5 47.5t112.5 14.5h340q89 0 137 -14.5t78 -44.5q38 -38 50.5 -96.5t12.5 -205.5 v-745h-211v135q-104 -87 -151.5 -112t-118.5 -25h-172q-77 0 -121.5 12t-77.5 45q-65 65 -65 242zM215 1464v11h340l174 -220v-10h-207zM317 332q0 -114 21 -135q17 -17 86 -17h158q62 0 110 13.5t123 54.5v229h-287q-97 0 -133 -6.5t-51 -21.5t-21 -39.5t-6 -77.5z" />
<glyph unicode="&#xe1;" horiz-adv-x="1175" d="M109 297q0 193 67 260q29 29 58 43.5t105 25.5t204 11q170 0 272 -31v123q0 92 -5.5 128.5t-18.5 49.5q-19 19 -97 19h-221q-69 0 -88 -19t-25 -137h-206q1 121 17 180.5t50 93.5q33 33 74.5 47.5t112.5 14.5h340q89 0 137 -14.5t78 -44.5q38 -38 50.5 -96.5t12.5 -205.5 v-745h-211v135q-104 -87 -151.5 -112t-118.5 -25h-172q-77 0 -121.5 12t-77.5 45q-65 65 -65 242zM317 332q0 -114 21 -135q17 -17 86 -17h158q62 0 110 13.5t123 54.5v229h-287q-97 0 -133 -6.5t-51 -21.5t-21 -39.5t-6 -77.5zM475 1245v10l174 220h340v-11l-307 -219h-207 z" />
<glyph unicode="&#xe2;" horiz-adv-x="1175" d="M109 297q0 193 67 260q29 29 58 43.5t105 25.5t204 11q170 0 272 -31v123q0 92 -5.5 128.5t-18.5 49.5q-19 19 -97 19h-221q-69 0 -88 -19t-25 -137h-206q1 121 17 180.5t50 93.5q33 33 74.5 47.5t112.5 14.5h340q89 0 137 -14.5t78 -44.5q38 -38 50.5 -96.5t12.5 -205.5 v-745h-211v135q-104 -87 -151.5 -112t-118.5 -25h-172q-77 0 -121.5 12t-77.5 45q-65 65 -65 242zM274 1245v10l205 240h246l205 -240v-10h-178l-152 107l-151 -107h-175zM317 332q0 -114 21 -135q17 -17 86 -17h158q62 0 110 13.5t123 54.5v229h-287q-97 0 -133 -6.5 t-51 -21.5t-21 -39.5t-6 -77.5z" />
<glyph unicode="&#xe3;" horiz-adv-x="1175" d="M109 297q0 193 67 260q29 29 58 43.5t105 25.5t204 11q170 0 272 -31v123q0 92 -5.5 128.5t-18.5 49.5q-19 19 -97 19h-221q-69 0 -88 -19t-25 -137h-206q1 121 17 180.5t50 93.5q33 33 74.5 47.5t112.5 14.5h340q89 0 137 -14.5t78 -44.5q38 -38 50.5 -96.5t12.5 -205.5 v-745h-211v135q-104 -87 -151.5 -112t-118.5 -25h-172q-77 0 -121.5 12t-77.5 45q-65 65 -65 242zM295 1245v129q0 74 29 103q26 26 77 26h31q37 0 70.5 -8t97.5 -33l143 -53l58 94h108v-129q0 -74 -28 -102q-27 -27 -78 -27h-31q-37 0 -70.5 8t-97.5 33l-143 53l-58 -94 h-108zM317 332q0 -114 21 -135q17 -17 86 -17h158q62 0 110 13.5t123 54.5v229h-287q-97 0 -133 -6.5t-51 -21.5t-21 -39.5t-6 -77.5z" />
<glyph unicode="&#xe4;" horiz-adv-x="1175" d="M109 297q0 193 67 260q29 29 58 43.5t105 25.5t204 11q170 0 272 -31v123q0 92 -5.5 128.5t-18.5 49.5q-19 19 -97 19h-221q-69 0 -88 -19t-25 -137h-206q1 121 17 180.5t50 93.5q33 33 74.5 47.5t112.5 14.5h340q89 0 137 -14.5t78 -44.5q38 -38 50.5 -96.5t12.5 -205.5 v-745h-211v135q-104 -87 -151.5 -112t-118.5 -25h-172q-77 0 -121.5 12t-77.5 45q-65 65 -65 242zM299 1249v226h227v-226h-227zM317 332q0 -114 21 -135q17 -17 86 -17h158q62 0 110 13.5t123 54.5v229h-287q-97 0 -133 -6.5t-51 -21.5t-21 -39.5t-6 -77.5zM678 1249v226 h227v-226h-227z" />
<glyph unicode="&#xe5;" horiz-adv-x="1175" d="M109 297q0 193 67 260q29 29 58 43.5t105 25.5t204 11q170 0 272 -31v123q0 92 -5.5 128.5t-18.5 49.5q-19 19 -97 19h-221q-69 0 -88 -19t-25 -137h-206q1 121 17 180.5t50 93.5q33 33 74.5 47.5t112.5 14.5h340q89 0 137 -14.5t78 -44.5q38 -38 50.5 -96.5t12.5 -205.5 v-745h-211v135q-104 -87 -151.5 -112t-118.5 -25h-172q-77 0 -121.5 12t-77.5 45q-65 65 -65 242zM317 332q0 -114 21 -135q17 -17 86 -17h158q62 0 110 13.5t123 54.5v229h-287q-97 0 -133 -6.5t-51 -21.5t-21 -39.5t-6 -77.5zM328 1454q0 61 11.5 97.5t41.5 66.5 q41 41 137 41h168q96 0 137 -41q30 -30 42 -66.5t12 -97.5t-12 -97.5t-42 -66.5q-41 -41 -137 -41h-168q-96 0 -137 41q-30 30 -41.5 66.5t-11.5 97.5zM469 1454q0 -62 16 -78q12 -12 54 -12h127q41 0 53 12q16 16 16 78t-16 78q-12 12 -53 12h-127q-42 0 -54 -12 q-16 -16 -16 -78z" />
<glyph unicode="&#xe6;" horiz-adv-x="1855" d="M109 299q0 193 67 260q29 29 58 43.5t105 25.5t204 11q170 0 272 -31v121q0 92 -5.5 128.5t-18.5 49.5q-19 19 -97 19h-217q-69 0 -88 -19q-11 -11 -16 -40.5t-8 -96.5h-213q3 128 17 184t48 90q33 33 74 47.5t110 14.5h304q89 0 137 -14.5t78 -44.5q7 -7 10 -13l8 8 q64 64 219 64h266q157 0 219 -62q55 -55 74 -149t19 -332v-59q0 -25 -25 -25h-690q2 -243 31 -272q12 -12 30 -16.5t64 -4.5h287q52 0 73 21q11 11 15.5 38t7.5 99h207q-3 -128 -19 -188t-57 -101q-55 -55 -180 -55h-353q-156 0 -219 63q-43 43 -61 99q-131 -107 -170 -130 q-57 -34 -131 -34h-172q-77 0 -121.5 12t-77.5 45q-65 65 -65 244zM317 334q0 -116 21 -137q17 -17 86 -17h158q63 0 112.5 15t132.5 61q-12 83 -12 223h-287q-97 0 -133 -6.5t-51 -21.5t-21 -39.5t-6 -77.5zM1020 649h504q0 219 -31 250q-21 21 -94 21h-254q-45 0 -64 -5 t-32 -18q-15 -15 -21.5 -63.5t-7.5 -184.5z" />
<glyph unicode="&#xe7;" horiz-adv-x="1136" d="M127 553q0 245 18.5 339.5t73.5 149.5q64 64 219 64h336q71 0 111.5 -13.5t68.5 -41.5q41 -41 57.5 -112t16.5 -222h-207q-4 160 -24 180q-18 18 -76 18h-256q-74 0 -94 -20q-17 -17 -24 -81t-7 -261t7 -261t24 -81q21 -21 94 -21h258q61 0 80 19q22 22 22 194h207 q0 -165 -16.5 -235t-59.5 -113q-55 -55 -180 -55h-338q-156 0 -219 63q-55 55 -73.5 150t-18.5 340zM322 -272h241q33 0 41 8t8 39t-8 39t-41 8h-90v121h127q96 0 127 -31q39 -39 39 -139q0 -99 -39 -138q-32 -32 -133 -32h-156l-116 82v43z" />
<glyph unicode="&#xe8;" horiz-adv-x="1173" d="M127 553q0 245 18.5 339.5t73.5 149.5q64 64 219 64h303q158 0 220 -62q55 -55 73.5 -148.5t18.5 -332.5v-55q0 -25 -25 -25h-690q2 -247 31 -276q12 -12 30 -16.5t64 -4.5h287q52 0 73 21q11 11 15.5 38t7.5 99h207q-3 -128 -19 -188t-57 -101q-55 -55 -180 -55h-359 q-156 0 -219 63q-55 55 -73.5 150t-18.5 340zM209 1464v11h340l174 -220v-10h-207zM338 653h504q0 129 -8 180t-23 66q-21 21 -94 21h-254q-45 0 -64 -5t-32 -18q-15 -15 -21.5 -63t-7.5 -181z" />
<glyph unicode="&#xe9;" horiz-adv-x="1173" d="M127 553q0 245 18.5 339.5t73.5 149.5q64 64 219 64h303q158 0 220 -62q55 -55 73.5 -148.5t18.5 -332.5v-55q0 -25 -25 -25h-690q2 -247 31 -276q12 -12 30 -16.5t64 -4.5h287q52 0 73 21q11 11 15.5 38t7.5 99h207q-3 -128 -19 -188t-57 -101q-55 -55 -180 -55h-359 q-156 0 -219 63q-55 55 -73.5 150t-18.5 340zM338 653h504q0 129 -8 180t-23 66q-21 21 -94 21h-254q-45 0 -64 -5t-32 -18q-15 -15 -21.5 -63t-7.5 -181zM469 1245v10l174 220h340v-11l-307 -219h-207z" />
<glyph unicode="&#xea;" horiz-adv-x="1173" d="M127 553q0 245 18.5 339.5t73.5 149.5q64 64 219 64h303q158 0 220 -62q55 -55 73.5 -148.5t18.5 -332.5v-55q0 -25 -25 -25h-690q2 -247 31 -276q12 -12 30 -16.5t64 -4.5h287q52 0 73 21q11 11 15.5 38t7.5 99h207q-3 -128 -19 -188t-57 -101q-55 -55 -180 -55h-359 q-156 0 -219 63q-55 55 -73.5 150t-18.5 340zM268 1245v10l205 240h246l205 -240v-10h-179l-151 107l-152 -107h-174zM338 653h504q0 129 -8 180t-23 66q-21 21 -94 21h-254q-45 0 -64 -5t-32 -18q-15 -15 -21.5 -63t-7.5 -181z" />
<glyph unicode="&#xeb;" horiz-adv-x="1173" d="M127 553q0 245 18.5 339.5t73.5 149.5q64 64 219 64h303q158 0 220 -62q55 -55 73.5 -148.5t18.5 -332.5v-55q0 -25 -25 -25h-690q2 -247 31 -276q12 -12 30 -16.5t64 -4.5h287q52 0 73 21q11 11 15.5 38t7.5 99h207q-3 -128 -19 -188t-57 -101q-55 -55 -180 -55h-359 q-156 0 -219 63q-55 55 -73.5 150t-18.5 340zM293 1249v226h227v-226h-227zM338 653h504q0 129 -8 180t-23 66q-21 21 -94 21h-254q-45 0 -64 -5t-32 -18q-15 -15 -21.5 -63t-7.5 -181zM672 1249v226h227v-226h-227z" />
<glyph unicode="&#xec;" horiz-adv-x="524" d="M-125 1464v11h340l174 -220v-10h-207zM156 0v1106h213v-1106h-213z" />
<glyph unicode="&#xed;" horiz-adv-x="524" d="M135 1245v10l174 220h340v-11l-307 -219h-207zM156 0v1106h213v-1106h-213z" />
<glyph unicode="&#xee;" horiz-adv-x="524" d="M-66 1245v10l205 240h246l205 -240v-10h-178l-152 107l-151 -107h-175zM156 0v1106h213v-1106h-213z" />
<glyph unicode="&#xef;" horiz-adv-x="524" d="M-41 1249v226h227v-226h-227zM156 0v1106h213v-1106h-213zM338 1249v226h227v-226h-227z" />
<glyph unicode="&#xf0;" horiz-adv-x="1222" d="M137 502q0 208 19 296t73 142q64 64 220 64h147q68 0 119 -25t153 -109q-2 97 -22 172q-17 52 -103 168l-290 -100v162l194 65q-92 121 -104 138h172l82 -84l278 96v-162l-164 -57q117 -131 144 -209q17 -46 23.5 -150t6.5 -336q0 -261 -16 -355.5t-76 -154.5 q-63 -63 -219 -63h-325q-157 0 -220 63q-54 54 -73 142.5t-19 296.5zM350 502q0 -158 7 -216t24 -75q21 -21 94 -21h273q73 0 94 21q20 20 25 84t5 278v177q-124 65 -215 65h-182q-74 0 -94 -20q-16 -16 -23.5 -75.5t-7.5 -217.5z" />
<glyph unicode="&#xf1;" horiz-adv-x="1224" d="M156 0v1106h213v-133q103 85 154.5 110t121.5 25h174q127 0 191 -64q35 -35 50 -87.5t15 -161.5v-795h-213v780q0 79 -28 107q-18 18 -40.5 24.5t-74.5 6.5h-144q-82 0 -206 -62v-856h-213zM311 1245v129q0 74 29 103q26 26 78 26h31q37 0 69.5 -8t97.5 -33l144 -53 l57 94h109v-129q0 -73 -29 -102q-27 -27 -78 -27h-31q-37 0 -69.5 8t-97.5 33l-144 53l-57 -94h-109z" />
<glyph unicode="&#xf2;" horiz-adv-x="1202" d="M127 553q0 245 18.5 339.5t73.5 149.5q64 64 219 64h326q155 0 219 -64q55 -55 73.5 -149.5t18.5 -339.5t-18.5 -340t-73.5 -150q-63 -63 -219 -63h-326q-156 0 -219 63q-55 55 -73.5 150t-18.5 340zM213 1464v11h340l174 -220v-10h-207zM340 553q0 -197 7 -261t24 -81 q21 -21 94 -21h272q73 0 94 21q17 17 24 81t7 261t-7 261t-24 81q-20 20 -94 20h-272q-74 0 -94 -20q-17 -17 -24 -81t-7 -261z" />
<glyph unicode="&#xf3;" horiz-adv-x="1202" d="M127 553q0 245 18.5 339.5t73.5 149.5q64 64 219 64h326q155 0 219 -64q55 -55 73.5 -149.5t18.5 -339.5t-18.5 -340t-73.5 -150q-63 -63 -219 -63h-326q-156 0 -219 63q-55 55 -73.5 150t-18.5 340zM340 553q0 -197 7 -261t24 -81q21 -21 94 -21h272q73 0 94 21 q17 17 24 81t7 261t-7 261t-24 81q-20 20 -94 20h-272q-74 0 -94 -20q-17 -17 -24 -81t-7 -261zM473 1245v10l174 220h340v-11l-307 -219h-207z" />
<glyph unicode="&#xf4;" horiz-adv-x="1202" d="M127 553q0 245 18.5 339.5t73.5 149.5q64 64 219 64h326q155 0 219 -64q55 -55 73.5 -149.5t18.5 -339.5t-18.5 -340t-73.5 -150q-63 -63 -219 -63h-326q-156 0 -219 63q-55 55 -73.5 150t-18.5 340zM272 1245v10l205 240h246l205 -240v-10h-178l-152 107l-152 -107h-174 zM340 553q0 -197 7 -261t24 -81q21 -21 94 -21h272q73 0 94 21q17 17 24 81t7 261t-7 261t-24 81q-20 20 -94 20h-272q-74 0 -94 -20q-17 -17 -24 -81t-7 -261z" />
<glyph unicode="&#xf5;" horiz-adv-x="1202" d="M127 553q0 245 18.5 339.5t73.5 149.5q64 64 219 64h326q155 0 219 -64q55 -55 73.5 -149.5t18.5 -339.5t-18.5 -340t-73.5 -150q-63 -63 -219 -63h-326q-156 0 -219 63q-55 55 -73.5 150t-18.5 340zM293 1245v129q0 74 29 103q26 26 77 26h31q37 0 70.5 -8t97.5 -33 l143 -53l58 94h108v-129q0 -74 -28 -102q-27 -27 -78 -27h-31q-37 0 -70.5 8t-97.5 33l-143 53l-58 -94h-108zM340 553q0 -197 7 -261t24 -81q21 -21 94 -21h272q73 0 94 21q17 17 24 81t7 261t-7 261t-24 81q-20 20 -94 20h-272q-74 0 -94 -20q-17 -17 -24 -81t-7 -261z " />
<glyph unicode="&#xf6;" horiz-adv-x="1202" d="M127 553q0 245 18.5 339.5t73.5 149.5q64 64 219 64h326q155 0 219 -64q55 -55 73.5 -149.5t18.5 -339.5t-18.5 -340t-73.5 -150q-63 -63 -219 -63h-326q-156 0 -219 63q-55 55 -73.5 150t-18.5 340zM297 1249v226h227v-226h-227zM340 553q0 -197 7 -261t24 -81 q21 -21 94 -21h272q73 0 94 21q17 17 24 81t7 261t-7 261t-24 81q-20 20 -94 20h-272q-74 0 -94 -20q-17 -17 -24 -81t-7 -261zM676 1249v226h227v-226h-227z" />
<glyph unicode="&#xf7;" horiz-adv-x="1040" d="M115 647v193h811v-193h-811zM403 311v230h234v-230h-234zM403 946v230h234v-230h-234z" />
<glyph unicode="&#xf8;" horiz-adv-x="1212" d="M129 -102l94 163v2q-55 55 -73.5 150t-18.5 340t18.5 339.5t73.5 149.5q64 64 219 64h326q9 0 27.5 -1t27.5 -1l58 104h200l-96 -166h2q55 -55 73.5 -149.5t18.5 -339.5t-18.5 -340t-73.5 -150q-63 -63 -219 -63h-326q-39 0 -55 2l-57 -104h-201zM344 553q0 -212 10 -287 l363 649h-248q-74 0 -94 -20q-17 -17 -24 -81t-7 -261zM492 190h249q74 0 95 21q17 17 23.5 80.5t6.5 261.5q0 212 -10 287z" />
<glyph unicode="&#xf9;" horiz-adv-x="1224" d="M150 311v795h212v-780q0 -78 29 -107q18 -18 40.5 -24.5t74.5 -6.5h143q86 0 207 62v856h213v-1106h-213v133q-104 -84 -156 -109.5t-120 -25.5h-174q-128 0 -191 63q-35 35 -50 87.5t-15 162.5zM227 1464v11h340l174 -220v-10h-206z" />
<glyph unicode="&#xfa;" horiz-adv-x="1224" d="M150 311v795h212v-780q0 -78 29 -107q18 -18 40.5 -24.5t74.5 -6.5h143q86 0 207 62v856h213v-1106h-213v133q-104 -84 -156 -109.5t-120 -25.5h-174q-128 0 -191 63q-35 35 -50 87.5t-15 162.5zM487 1245v10l175 220h339v-11l-307 -219h-207z" />
<glyph unicode="&#xfb;" horiz-adv-x="1224" d="M150 311v795h212v-780q0 -78 29 -107q18 -18 40.5 -24.5t74.5 -6.5h143q86 0 207 62v856h213v-1106h-213v133q-104 -84 -156 -109.5t-120 -25.5h-174q-128 0 -191 63q-35 35 -50 87.5t-15 162.5zM287 1245v10l205 240h245l205 -240v-10h-178l-152 107l-151 -107h-174z " />
<glyph unicode="&#xfc;" horiz-adv-x="1224" d="M150 311v795h212v-780q0 -78 29 -107q18 -18 40.5 -24.5t74.5 -6.5h143q86 0 207 62v856h213v-1106h-213v133q-104 -84 -156 -109.5t-120 -25.5h-174q-128 0 -191 63q-35 35 -50 87.5t-15 162.5zM311 1249v226h228v-226h-228zM690 1249v226h228v-226h-228z" />
<glyph unicode="&#xfd;" horiz-adv-x="1122" d="M37 1106h244l290 -805h15l258 805h229l-452 -1280q-26 -73 -72.5 -105t-126.5 -32q-83 0 -225 14v178h200q19 0 28 8t17 29l31 82zM446 1245v10l175 220h340v-11l-308 -219h-207z" />
<glyph unicode="&#xfe;" horiz-adv-x="1234" d="M156 -307v1782h213v-502q103 85 154.5 110t121.5 25h150q87 0 138 -16t87 -52q48 -48 68 -145.5t20 -341.5t-20 -341.5t-68 -145.5q-36 -36 -87 -52t-138 -16h-150q-70 0 -121.5 24.5t-154.5 108.5v-438h-213zM369 254q126 -66 215 -66h159q86 0 113 27q24 24 31.5 89 t7.5 249t-7.5 249t-31.5 89q-27 27 -113 27h-168q-82 0 -206 -62v-602z" />
<glyph unicode="&#xff;" horiz-adv-x="1122" d="M37 1106h244l290 -805h15l258 805h229l-452 -1280q-26 -73 -72.5 -105t-126.5 -32q-83 0 -225 14v178h200q19 0 28 8t17 29l31 82zM270 1249v226h228v-226h-228zM649 1249v226h228v-226h-228z" />
<glyph unicode="&#x152;" horiz-adv-x="2078" d="M119 717q0 260 33.5 405t105.5 211q61 55 140 78t208 23h1372v-197h-749v-395h620v-197h-620v-448h749v-197h-1372q-130 0 -209 23t-139 77q-72 66 -105.5 211.5t-33.5 405.5zM352 715q0 -234 18.5 -333.5t61.5 -139.5q29 -28 66 -36.5t108 -8.5h393v1040h-393 q-72 0 -107 -8t-67 -37q-43 -40 -61.5 -140t-18.5 -337z" />
<glyph unicode="&#x153;" horiz-adv-x="1914" d="M127 553q0 245 18.5 339.5t73.5 149.5q64 64 219 64h295q81 0 131 -15t84 -49l23 -26l24 26q34 34 84 49t131 15h273q157 0 219 -62q55 -55 73.5 -148.5t18.5 -332.5v-55q0 -25 -25 -25h-690q2 -247 31 -276q12 -12 30 -16.5t64 -4.5h287q53 0 74 21q10 10 14.5 36.5 t7.5 100.5h207q-3 -128 -19 -188t-57 -101q-55 -55 -180 -55h-328q-82 0 -131.5 14.5t-83.5 48.5l-24 27q-6 -10 -23 -27q-34 -34 -83.5 -48.5t-131.5 -14.5h-295q-156 0 -219 63q-55 55 -73.5 150t-18.5 340zM340 553q0 -197 7 -261t24 -81q21 -21 94 -21h272q73 0 94 21 q17 17 24 81t7 261t-7 261t-24 81q-20 20 -94 20h-272q-74 0 -94 -20q-17 -17 -24 -81t-7 -261zM1079 653h504q0 129 -8 180t-23 66q-21 21 -94 21h-254q-45 0 -64 -5t-32 -18q-15 -15 -21.5 -63t-7.5 -181z" />
<glyph unicode="&#x178;" horiz-adv-x="1243" d="M6 1434h252l360 -637h17l354 637h248l-498 -861v-573h-229v567zM324 1556v226h227v-226h-227zM702 1556v226h228v-226h-228z" />
<glyph unicode="&#x2c6;" d="M184 1245v10l205 240h246l205 -240v-10h-178l-152 107l-152 -107h-174z" />
<glyph unicode="&#x2dc;" d="M205 1245v129q0 75 28 103q26 26 78 26h31q37 0 70.5 -8t97.5 -33l143 -53l58 94h108v-129q0 -74 -28 -102q-27 -27 -78 -27h-31q-37 0 -70.5 8t-97.5 33l-143 53l-58 -94h-108z" />
<glyph unicode="&#x2000;" horiz-adv-x="905" />
<glyph unicode="&#x2001;" horiz-adv-x="1810" />
<glyph unicode="&#x2002;" horiz-adv-x="905" />
<glyph unicode="&#x2003;" horiz-adv-x="1810" />
<glyph unicode="&#x2004;" horiz-adv-x="603" />
<glyph unicode="&#x2005;" horiz-adv-x="452" />
<glyph unicode="&#x2006;" horiz-adv-x="301" />
<glyph unicode="&#x2007;" horiz-adv-x="301" />
<glyph unicode="&#x2008;" horiz-adv-x="226" />
<glyph unicode="&#x2009;" horiz-adv-x="362" />
<glyph unicode="&#x200a;" horiz-adv-x="100" />
<glyph unicode="&#x2010;" horiz-adv-x="839" d="M127 543v219h586v-219h-586z" />
<glyph unicode="&#x2011;" horiz-adv-x="839" d="M127 543v219h586v-219h-586z" />
<glyph unicode="&#x2012;" horiz-adv-x="839" d="M127 543v219h586v-219h-586z" />
<glyph unicode="&#x2013;" horiz-adv-x="1146" d="M147 545v215h852v-215h-852z" />
<glyph unicode="&#x2014;" horiz-adv-x="2048" d="M147 547v211h1754v-211h-1754z" />
<glyph unicode="&#x2018;" horiz-adv-x="550" d="M141 881v260q0 43 14 74.5t46 64.5l176 180l74 -61l-134 -180q-16 -23 -16 -52v-14h96v-272h-256z" />
<glyph unicode="&#x2019;" horiz-adv-x="550" d="M100 915l133 181q17 24 17 51v14h-96v273h256v-260q0 -77 -60 -140l-176 -180z" />
<glyph unicode="&#x201a;" horiz-adv-x="550" d="M94 -246l133 180q17 24 17 52v14h-97v272h256v-260q0 -43 -13.5 -74.5t-45.5 -64.5l-176 -180z" />
<glyph unicode="&#x201c;" horiz-adv-x="989" d="M141 881v260q0 43 14 74.5t46 64.5l176 180l74 -61l-134 -180q-16 -23 -16 -52v-14h96v-272h-256zM580 881v260q0 43 13.5 74.5t45.5 64.5l176 180l74 -61l-133 -180q-17 -24 -17 -52v-14h97v-272h-256z" />
<glyph unicode="&#x201d;" horiz-adv-x="989" d="M100 915l133 181q17 24 17 51v14h-96v273h256v-260q0 -77 -60 -140l-176 -180zM539 915l133 181q16 23 16 51v14h-96v273h256v-260q0 -77 -60 -140l-176 -180z" />
<glyph unicode="&#x201e;" horiz-adv-x="989" d="M94 -246l133 180q17 24 17 52v14h-97v272h256v-260q0 -43 -13.5 -74.5t-45.5 -64.5l-176 -180zM532 -246l134 180q16 23 16 52v14h-96v272h256v-260q0 -43 -14 -74.5t-46 -64.5l-176 -180z" />
<glyph unicode="&#x2022;" horiz-adv-x="1085" d="M256 743q0 130 12 184t43 85q23 23 51 31t80 8h201q52 0 80 -8t51 -31q31 -31 43 -85t12 -184q0 -129 -12 -183t-43 -85q-23 -23 -51 -31t-80 -8h-201q-52 0 -80 8t-51 31q-31 31 -43 85t-12 183z" />
<glyph unicode="&#x2026;" horiz-adv-x="1748" d="M168 0v266h250v-266h-250zM750 0v266h249v-266h-249zM1331 0v266h250v-266h-250z" />
<glyph unicode="&#x202f;" horiz-adv-x="362" />
<glyph unicode="&#x2039;" horiz-adv-x="802" d="M133 477v152l295 301h248l-344 -375l348 -379h-252z" />
<glyph unicode="&#x203a;" horiz-adv-x="802" d="M123 176l348 379l-344 375h248l295 -301v-152l-295 -301h-252z" />
<glyph unicode="&#x205f;" horiz-adv-x="452" />
<glyph unicode="&#x20ac;" horiz-adv-x="1423" d="M94 436v191h144v90v102h-144v191h152q11 165 40 242t81 124q36 33 85 45.5t148 12.5h336q99 0 148 -12.5t85 -45.5q63 -56 90.5 -145t30.5 -268h-225q-7 216 -47 251q-26 23 -103 23h-292q-77 0 -103 -23q-36 -31 -47 -204h371v-191h-377v-102v-90h377v-191h-371 q11 -186 47 -217q25 -22 103 -22h292q78 0 103 22q20 17 31.5 73t15.5 202h227q-5 -141 -19.5 -225t-37.5 -129t-66 -83q-37 -33 -85 -45t-148 -12h-336q-100 0 -148.5 12t-84.5 45q-52 47 -81 126.5t-40 252.5h-152z" />
<glyph unicode="&#x2122;" horiz-adv-x="1726" d="M82 1323v111h592v-111h-230v-678h-131v678h-231zM817 645v789h199q28 0 39 -8t18 -37l152 -596h18l152 596q7 29 17.5 37t39.5 8h193v-789h-129v662h-21l-174 -619q-7 -26 -19 -34.5t-40 -8.5h-70q-28 0 -38.5 8.5t-18.5 34.5l-174 619h-21v-662h-123z" />
<glyph unicode="&#x25fc;" horiz-adv-x="1105" d="M0 0v1106h1106v-1106h-1106z" />
</font>
</defs>
</svg>
